<svg width="74.000000" height="74.000000" viewBox="0 0 74 74" fill="none" xmlns="http://www.w3.org/2000/svg" xmlns:xlink="http://www.w3.org/1999/xlink">
	<desc>
			Created with Pixso.
	</desc>
	<defs/>
	<circle id="Ellipse 801" cx="37.000000" cy="37.000000" r="37.000000" fill="#0000DE" fill-opacity="0.400000"/>
	<circle id="Ellipse 800" cx="37.000000" cy="37.000000" r="28.000000" fill="#0000DE" fill-opacity="1.000000"/>
	<path id="Subtract" d="M37 49C41.5 49 49 40.9375 49 34.5557C49 28.1738 43.627 23 37 23C30.373 23 25 28.1738 25 34.5557C25 40.9375 32.5 49 37 49ZM37 38.5996C39.209 38.5996 41 36.8535 41 34.7002C41 32.5459 39.209 30.7998 37 30.7998C34.791 30.7998 33 32.5459 33 34.7002C33 36.8535 34.791 38.5996 37 38.5996Z" fill="#FFFFFF" fill-opacity="1.000000" fill-rule="evenodd"/>
</svg>
