<svg width="71.000000" height="71.000000" viewBox="0 0 71 71" fill="none" xmlns="http://www.w3.org/2000/svg" xmlns:xlink="http://www.w3.org/1999/xlink">
	<desc>
			Created with Pixso.
	</desc>
	<defs/>
	<mask id="mask137_942" mask-type="alpha" maskUnits="userSpaceOnUse" x="0.000000" y="0.000000" width="71.000000" height="71.000000">
		<path id="path1623" d="M17.6465 0.0322266L20.6836 0L52.2812 0.0126953C52.7598 0.0175781 53.0605 0.0234375 53.3574 0.0322266C54.9219 0.0732422 56.5039 0.163086 58.0527 0.441406C59.6055 0.703125 61.1094 1.19336 62.5176 1.89551C63.9199 2.60156 65.207 3.52246 66.3184 4.62598C67.4316 5.72461 68.3633 6.99219 69.0781 8.38184C69.8105 9.7959 70.2676 11.2441 70.5508 12.7969C70.8301 14.3291 70.9219 15.8906 70.9629 17.4404C70.9844 18.1504 70.9941 18.8604 70.9961 19.5723L71 20.8398L71 48.8887C71 49.7324 71 50.5781 70.9961 51.4238C70.9922 52.1338 70.9844 52.8438 70.9629 53.5537C70.9199 55.1025 70.8301 56.667 70.5508 58.1963C70.2852 59.7334 69.7891 61.2217 69.0781 62.6113C68.3633 64.002 67.4316 65.2705 66.3184 66.3701C65.2012 67.4736 63.9199 68.3945 62.5176 69.1006C61.1094 69.8027 59.6055 70.293 58.0527 70.5547C56.5039 70.8301 54.9219 70.9199 53.3574 70.9639L48.6367 71L18.7188 70.9824C18.3613 70.9785 18.0039 70.9717 17.6465 70.9609C16.0801 70.9229 14.498 70.8301 12.9492 70.5547C11.3984 70.293 9.89453 69.8027 8.48633 69.1006C5.66992 67.6826 3.37305 65.4111 1.92188 62.6113C1.21289 61.2217 0.716797 59.7334 0.449219 58.1963C0.169922 56.667 0.0800781 55.1025 0.0390625 53.5557C0.0175781 52.8457 0.0117188 52.1338 0.00585938 51.4238L0 50.1514L0 22.1064C0 21.2637 0 20.418 0.00585938 19.5742C0.0117188 18.8643 0.0195312 18.1543 0.0390625 17.4424C0.0820312 15.8936 0.171875 14.3311 0.449219 12.7998C0.716797 11.2627 1.21289 9.77441 1.92188 8.38477C3.37109 5.58301 5.66797 3.3125 8.48438 1.89551C9.89258 1.19336 11.3984 0.703125 12.9492 0.441406C14.498 0.166016 16.0801 0.0751953 17.6465 0.0322266Z" fill="#FFFFFF" fill-opacity="1.000000" fill-rule="evenodd"/>
	</mask>
	<g mask="url(#mask137_942)">
		<path id="path1626" d="M-3.29883 -0.532227L74.873 -0.532227L74.873 77.6396L-3.29883 77.6396L-3.29883 -0.532227Z" fill="#19AA1E" fill-opacity="1.000000" fill-rule="nonzero"/>
		<path id="path1628" d="M-3.29883 -0.532227L74.873 -0.532227L74.873 25.1152L-3.29883 12.9023L-3.29883 -0.532227Z" fill="#FFB919" fill-opacity="1.000000" fill-rule="evenodd"/>
		<path id="path1630" d="M-3.29883 69.0869L74.873 56.874L74.873 77.6377L-3.29883 77.6377L-3.29883 69.0869Z" fill="#82D714" fill-opacity="1.000000" fill-rule="evenodd"/>
		<path id="path1632" d="M-3.29883 11.3574L23.9883 15.6211C27.3848 13.4707 31.4258 12.291 35.7852 12.291C41.8262 12.291 47.2559 14.5527 51.2051 18.5225C51.7031 19.0244 52.1719 19.5479 52.6152 20.0928L74.873 23.5703L74.873 26.6611L54.875 23.5342C56.3711 26.3955 57.1562 29.5762 57.1602 32.8057C57.1602 36.9932 56.2246 41.1689 54.2871 45.3613L54.2305 45.4893L53.4062 47.252L51.4648 47.252C47.4473 47.252 44.7852 48.4521 43.041 50.582C41.6738 52.252 40.8828 54.5068 40.6172 56.9658L40.6094 57.041L40.5703 57.4346L40.5547 57.6055L40.5215 57.9395C40.4199 59.0381 40.3535 59.9688 40.3164 60.7266L74.873 55.3262L74.873 58.417L-3.29883 70.6328L-3.29883 67.541L31.2949 62.1357L31.2812 61.4424L31.2754 61.248L31.2715 61.1465L31.2676 60.9922C31.2363 60.1514 31.1582 59.0732 31.0352 57.7656L31.0117 57.5176L30.9688 57.0889C30.7227 54.6162 29.9434 52.335 28.5762 50.6387C26.8535 48.4951 24.2168 47.2754 20.2305 47.252L18.166 47.252L17.3438 45.4893C15.3691 41.2539 14.4121 37.0361 14.4121 32.8057C14.4121 27.4854 16.5684 22.3408 20.3691 18.5225L20.6992 18.1982L-3.29883 14.4463L-3.29883 11.3574Z" fill="#FFFFFF" fill-opacity="1.000000" fill-rule="evenodd"/>
		<path id="path1634" d="M35.7871 15.3438C46.7012 15.3438 54.1074 23.7432 54.1074 32.8057C54.1074 36.4434 53.3145 40.2285 51.4609 44.1982C40.7246 44.1982 38.0742 51.8867 37.5723 56.7285L37.5391 57.0479C37.3711 58.7773 37.2715 60.1631 37.2461 61.2051L34.3359 61.6602L34.3359 61.5654C34.2969 60.0264 34.1914 58.4893 34.0234 56.958L34.0176 56.873C33.5527 52.043 30.959 44.1982 20.1133 44.1982C18.2578 40.2285 17.4648 36.4434 17.4648 32.8057C17.4648 23.7432 24.873 15.3438 35.7871 15.3438Z" fill="#0073FA" fill-opacity="1.000000" fill-rule="evenodd"/>
	</g>
</svg>
