<svg width="28.000000" height="28.000000" viewBox="0 0 28 28" fill="none" xmlns="http://www.w3.org/2000/svg" xmlns:xlink="http://www.w3.org/1999/xlink">
	<desc>
			Created with Pixso.
	</desc>
	<defs/>
	<circle id="Ellipse 3952" cx="14.000000" cy="14.000000" r="14.000000" fill="#FFFFFF" fill-opacity="1.000000"/>
	<path id="Vector" d="M17.5898 14.0303L17.5898 10.6592C17.5898 10.5225 17.4707 10.4102 17.3281 10.4102L13.7871 10.4102C13.6445 10.4102 13.5273 10.5225 13.5273 10.6592C13.5273 10.7949 13.6484 10.9121 13.793 10.9121L16.707 10.916L10.1328 17.1797C10.0312 17.2773 10.0195 17.4248 10.1211 17.5225C10.2227 17.6191 10.3789 17.6074 10.4805 17.5107L17.0547 11.25L17.0586 14.0264C17.0586 14.0967 17.0918 14.1592 17.1367 14.2051C17.1855 14.252 17.25 14.2793 17.3242 14.2793C17.4707 14.2793 17.5898 14.166 17.5898 14.0303Z" fill="#0000DE" fill-opacity="1.000000" fill-rule="nonzero"/>
</svg>
