<svg width="50.000000" height="50.000000" viewBox="0 0 50 50" fill="none" xmlns="http://www.w3.org/2000/svg" xmlns:xlink="http://www.w3.org/1999/xlink">
	<desc>
			Created with Pixso.
	</desc>
	<defs>
		<clipPath id="clip137_819">
			<rect id="Bold Duotone / Video, Audio, Sound / Soundwave" width="50.000000" height="50.000000" fill="white" fill-opacity="0"/>
		</clipPath>
	</defs>
	<g clip-path="url(#clip137_819)">
		<path id="Vector" d="M25 6.77051C25.8633 6.77051 26.5625 7.46973 26.5625 8.33301L26.5625 41.666C26.5625 42.5293 25.8633 43.2285 25 43.2285C24.1387 43.2285 23.4375 42.5293 23.4375 41.666L23.4375 8.33301C23.4375 7.46973 24.1387 6.77051 25 6.77051ZM8.33398 21.3535C9.19727 21.3535 9.89648 22.0537 9.89648 22.916L9.89648 27.083C9.89648 27.9463 9.19727 28.6455 8.33398 28.6455C7.4707 28.6455 6.77148 27.9463 6.77148 27.083L6.77148 22.916C6.77148 22.0537 7.4707 21.3535 8.33398 21.3535ZM41.668 21.3535C42.5293 21.3535 43.2305 22.0537 43.2305 22.916L43.2305 27.083C43.2305 27.9463 42.5293 28.6455 41.668 28.6455C40.8047 28.6455 40.1055 27.9463 40.1055 27.083L40.1055 22.916C40.1055 22.0537 40.8047 21.3535 41.668 21.3535Z" fill="#0000DE" fill-opacity="1.000000" fill-rule="evenodd"/>
		<g opacity="0.500000">
			<path id="Vector" d="M16.666 13.0205C17.5293 13.0205 18.2285 13.7197 18.2285 14.583L18.2285 35.416C18.2285 36.2793 17.5293 36.9785 16.666 36.9785C15.8027 36.9785 15.1035 36.2793 15.1035 35.416L15.1035 14.583C15.1035 13.7197 15.8027 13.0205 16.666 13.0205ZM33.332 13.0205C34.1953 13.0205 34.8945 13.7197 34.8945 14.583L34.8945 35.416C34.8945 36.2793 34.1953 36.9785 33.332 36.9785C32.4707 36.9785 31.7695 36.2793 31.7695 35.416L31.7695 14.583C31.7695 13.7197 32.4707 13.0205 33.332 13.0205Z" fill="#0000DE" fill-opacity="1.000000" fill-rule="evenodd"/>
		</g>
	</g>
</svg>
