<svg width="48.000000" height="44.526367" viewBox="0 0 48 44.5264" fill="none" xmlns="http://www.w3.org/2000/svg" xmlns:xlink="http://www.w3.org/1999/xlink">
	<desc>
			Created with Pixso.
	</desc>
	<defs/>
	<path id="Vector" d="M23.1641 0L25.9727 0L25.9727 44.4375L23.1641 44.4375L23.1641 0Z" fill="#0000DE" fill-opacity="1.000000" fill-rule="evenodd"/>
	<path id="Vector" d="M10.0176 7.4248C12.0664 7.4248 13.7285 5.7627 13.7285 3.71191C13.7285 1.66113 12.0664 0 10.0176 0C7.96484 0 6.30469 1.66113 6.30469 3.71191C6.30469 5.7627 7.96484 7.4248 10.0176 7.4248Z" fill="#2121E2" fill-opacity="1.000000" fill-rule="nonzero"/>
	<path id="Vector" d="M17.2539 12.7188C16.502 10.1787 14.8164 8.49512 12.918 8.49512C11.5117 8.49512 10.0176 8.49512 10.0176 8.49512C10.0176 8.49512 8.52148 8.49512 7.11523 8.49512C5.2168 8.49512 3.53125 10.1787 2.77734 12.7188L0.0449219 22.417C-0.15625 23.2344 0.341797 24.0684 1.1582 24.2686C1.97656 24.4697 2.79492 23.9922 2.99609 23.1748L5.7207 13.5068L6.52344 13.5068L1.7832 30.3242L6.25391 30.3242L6.25391 42.7998C6.25391 43.7529 7.02734 44.5254 7.97852 44.5254C8.93359 44.5254 9.70703 43.7529 9.70703 42.7998L9.70703 30.3242L10.6582 30.3242L10.6582 42.7998C10.6582 43.7529 11.4316 44.5254 12.3848 44.5254C13.3379 44.5254 14.1113 43.7529 14.1113 42.7998L14.1113 30.3242L18.248 30.3242L13.5078 13.5068L14.3105 13.5068L17.0352 23.1748C17.2383 23.9922 18.0566 24.4697 18.873 24.2686C19.6914 24.0684 20.1895 23.2344 19.9863 22.417L17.2539 12.7188Z" fill="#9999F2" fill-opacity="1.000000" fill-rule="nonzero"/>
	<path id="Vector" d="M39.6738 7.4248C41.7246 7.4248 43.3848 5.7627 43.3848 3.71191C43.3848 1.66113 41.7246 0 39.6738 0C37.623 0 35.9609 1.66113 35.9609 3.71191C35.9609 5.7627 37.623 7.4248 39.6738 7.4248Z" fill="#2121E2" fill-opacity="1.000000" fill-rule="nonzero"/>
	<path id="Vector" d="M44.2441 8.47266L34.4883 8.47266C32.6914 8.47266 30.7324 10.4307 30.7324 12.2295L30.7324 24.707C30.7324 25.6064 31.4609 26.3359 32.3613 26.3359C33.2598 26.3359 33.9902 25.6064 33.9902 24.707L33.9902 14.4482L34.7402 14.4482L34.7402 42.2979C34.7402 43.4795 35.6973 44.4375 36.8809 44.4375C38.0625 44.4375 39.0215 43.4795 39.0215 42.2979L39.0215 26.1357L39.7109 26.1357L39.7109 42.2979C39.7109 43.4795 40.668 44.4375 41.8516 44.4375C43.0332 44.4375 43.9922 43.4795 43.9922 42.2979L43.9922 14.4482L44.7422 14.4482L44.7422 24.707C44.7422 25.6064 45.4727 26.3359 46.3711 26.3359C47.2695 26.3359 48 25.6064 48 24.707L48 12.2295C48 10.4307 46.041 8.47266 44.2441 8.47266Z" fill="#9999F2" fill-opacity="1.000000" fill-rule="nonzero"/>
</svg>
