<svg width="43.230469" height="38.274414" viewBox="0 0 43.2305 38.2744" fill="none" xmlns="http://www.w3.org/2000/svg" xmlns:xlink="http://www.w3.org/1999/xlink">
	<desc>
			Created with Pixso.
	</desc>
	<defs/>
	<g opacity="0.400000">
		<path id="Rectangle 901" d="M33.334 0C37.9375 0 41.668 3.73145 41.668 8.33301L41.668 29.167C41.668 33.7686 37.9375 37.5 33.334 37.5L8.33398 37.5C3.73242 37.5 0.00195312 33.7686 0.00195312 29.167L0.00195312 8.33301C0.00195312 3.73145 3.73242 0 8.33398 0L33.334 0Z" fill="#0000DE" fill-opacity="1.000000" fill-rule="nonzero"/>
	</g>
	<circle id="Ellipse 799" cx="8.333984" cy="29.166016" r="2.083333" fill="#0000DE" fill-opacity="1.000000"/>
	<path id="Vector 2149" d="M41.668 8.33301L0.00195312 8.33301L0.00195312 16.666L41.668 16.666L41.668 8.33301Z" fill="#0000DE" fill-opacity="1.000000" fill-rule="evenodd"/>
	<path id="Vector 2139 (Stroke)" d="M42.6973 27.9912C43.3457 28.5596 43.4121 29.5469 42.8438 30.1963L36.8652 37.0293C35.5801 38.4971 33.3672 38.6943 31.8438 37.4756L28.1914 34.5537C27.5176 34.0146 27.4082 33.0312 27.9473 32.3574C28.4863 31.6836 29.4707 31.5742 30.1445 32.1133L33.7949 35.0352C34.0137 35.209 34.3301 35.1807 34.5137 34.9717L40.4922 28.1377C41.0605 27.4883 42.0469 27.4229 42.6973 27.9912Z" fill="#0000DE" fill-opacity="1.000000" fill-rule="evenodd"/>
</svg>
