<svg width="50.000000" height="50.000000" viewBox="0 0 50 50" fill="none" xmlns="http://www.w3.org/2000/svg" xmlns:xlink="http://www.w3.org/1999/xlink">
	<desc>
			Created with Pixso.
	</desc>
	<defs>
		<clipPath id="clip137_817">
			<rect id="Bold Duotone / Map &amp; Location / Routing 3" width="50.000000" height="50.000000" fill="white" fill-opacity="0"/>
		</clipPath>
	</defs>
	<g clip-path="url(#clip137_817)">
		<g opacity="0.500000">
			<circle id="Vector" cx="10.416016" cy="10.416992" r="6.250000" fill="#0000DE" fill-opacity="1.000000"/>
		</g>
		<g opacity="0.500000">
			<circle id="Vector" cx="39.583984" cy="39.583008" r="6.250000" fill="#0000DE" fill-opacity="1.000000"/>
		</g>
		<path id="Vector" d="M21.3535 10.417C21.3535 9.55371 22.0527 8.85449 22.916 8.85449L33.6074 8.85449C39.3398 8.85449 41.5195 16.3398 36.6836 19.417L14.9941 33.2197C12.7949 34.6191 13.7871 38.0215 16.3926 38.0215L23.3105 38.0215L22.8535 37.5635C22.2441 36.9531 22.2441 35.9639 22.8535 35.3535C23.4629 34.7432 24.4531 34.7432 25.0625 35.3535L28.1875 38.4785C28.7988 39.0889 28.7988 40.0781 28.1875 40.6885L25.0625 43.8135C24.4531 44.4238 23.4629 44.4238 22.8535 43.8135C22.2441 43.2031 22.2441 42.2139 22.8535 41.6035L23.3105 41.1465L16.3926 41.1465C10.6602 41.1465 8.48047 33.6611 13.3164 30.584L35.0059 16.7803C37.2051 15.3818 36.2129 11.9795 33.6074 11.9795L22.916 11.9795C22.0527 11.9795 21.3535 11.2803 21.3535 10.417Z" fill="#0000DE" fill-opacity="1.000000" fill-rule="evenodd"/>
	</g>
</svg>
