<svg width="50.000000" height="50.000000" viewBox="0 0 50 50" fill="none" xmlns="http://www.w3.org/2000/svg" xmlns:xlink="http://www.w3.org/1999/xlink">
	<desc>
			Created with Pixso.
	</desc>
	<defs>
		<clipPath id="clip116_2243">
			<rect id="Bold Duotone / Electronic, Devices / Smartphone 2" width="50.000000" height="50.000000" fill="white" fill-opacity="0"/>
		</clipPath>
	</defs>
	<g clip-path="url(#clip116_2243)">
		<g opacity="0.500000">
			<path id="Vector" d="M8.33398 20.834C8.33398 12.9766 8.33398 9.04883 10.7754 6.60742C13.2148 4.16699 17.1445 4.16699 25 4.16699C32.8574 4.16699 36.7852 4.16699 39.2266 6.60742C41.668 9.04883 41.668 12.9766 41.668 20.834L41.668 29.167C41.668 37.0234 41.668 40.9521 39.2266 43.3926C36.7852 45.834 32.8574 45.834 25 45.834C17.1445 45.834 13.2148 45.834 10.7754 43.3926C8.33398 40.9521 8.33398 37.0234 8.33398 29.167L8.33398 20.834Z" fill="#0000DE" fill-opacity="1.000000" fill-rule="evenodd"/>
		</g>
		<path id="Vector" d="M18.75 8.85449C17.8867 8.85449 17.1875 9.55371 17.1875 10.417C17.1875 11.2803 17.8867 11.9795 18.75 11.9795L31.25 11.9795C32.1133 11.9795 32.8125 11.2803 32.8125 10.417C32.8125 9.55371 32.1133 8.85449 31.25 8.85449L18.75 8.85449ZM25 39.584C27.3008 39.584 29.166 37.7178 29.166 35.417C29.166 33.1162 27.3008 31.25 25 31.25C22.6992 31.25 20.834 33.1162 20.834 35.417C20.834 37.7178 22.6992 39.584 25 39.584Z" fill="#0000DE" fill-opacity="1.000000" fill-rule="evenodd"/>
	</g>
</svg>
