<svg width="50.000000" height="50.000000" viewBox="0 0 50 50" fill="none" xmlns="http://www.w3.org/2000/svg" xmlns:xlink="http://www.w3.org/1999/xlink">
	<desc>
			Created with Pixso.
	</desc>
	<defs>
		<clipPath id="clip116_2246">
			<rect id="Bold Duotone / Transport, Parts, Service / Gas Station" width="50.000000" height="50.000000" fill="white" fill-opacity="0"/>
		</clipPath>
	</defs>
	<g clip-path="url(#clip116_2246)">
		<g opacity="0.500000">
			<path id="Vector" d="M20.3125 4.16699L18.2285 4.16699C12.3359 4.16699 9.39062 4.16699 7.55859 5.99805C5.72852 7.82812 5.72852 10.7744 5.72852 16.667L5.72852 44.2715L32.8125 44.2715L32.8125 36.9795L32.8125 33.8545L32.8125 16.667C32.8125 10.7744 32.8125 7.82812 30.9805 5.99805C29.1504 4.16699 26.2051 4.16699 20.3125 4.16699Z" fill="#0000DE" fill-opacity="1.000000" fill-rule="evenodd"/>
		</g>
		<path id="Vector" d="M5.73047 44.2705L3.64648 44.2705C2.7832 44.2705 2.08398 44.9697 2.08398 45.833C2.08398 46.6963 2.7832 47.3955 3.64648 47.3955L35.1543 47.3955C36.0156 47.3955 36.7168 46.6963 36.7168 45.833C36.7168 44.9697 36.0156 44.2705 35.1543 44.2705L32.8125 44.2705L5.73047 44.2705Z" fill="#0000DE" fill-opacity="1.000000" fill-rule="nonzero"/>
		<path id="Vector" d="M22.916 12.5L16.666 12.5C14.7031 12.5 13.7207 12.5 13.1094 13.1104C12.5 13.7207 12.5 14.7021 12.5 16.667C12.5 18.6309 12.5 19.6133 13.1094 20.2227C13.7207 20.833 14.7031 20.833 16.666 20.833L22.916 20.833C24.8809 20.833 25.8633 20.833 26.4727 20.2227C27.084 19.6133 27.084 18.6309 27.084 16.667C27.084 14.7021 27.084 13.7207 26.4727 13.1104C25.8633 12.5 24.8809 12.5 22.916 12.5ZM13.0215 35.417C13.0215 34.5537 13.7207 33.8545 14.584 33.8545L25 33.8545C25.8633 33.8545 26.5625 34.5537 26.5625 35.417C26.5625 36.2793 25.8633 36.9795 25 36.9795L14.584 36.9795C13.7207 36.9795 13.0215 36.2793 13.0215 35.417Z" fill="#0000DE" fill-opacity="1.000000" fill-rule="evenodd"/>
		<path id="Vector" d="M36.0859 36.9785L32.8125 36.9785L32.8125 33.8535L36.0859 33.8535C38.5938 33.8535 40.625 35.8857 40.625 38.3926L40.625 38.541C40.625 39.4043 41.3242 40.1035 42.1875 40.1035C43.0508 40.1035 43.75 39.4043 43.75 38.541L43.75 28.6455L41.1992 27.7949C39.9238 27.3701 39.0625 26.1758 39.0625 24.8311L39.0625 19.791C39.0625 18.0654 40.4609 16.666 42.1875 16.666L43.75 16.666L43.75 15.8799C43.75 15.4941 43.75 15.3623 43.7422 15.2412C43.6738 14.002 43.1152 12.8418 42.1914 12.0137C42.1016 11.9326 41.998 11.8496 41.6973 11.6084L39.1289 9.55273C38.4551 9.01367 38.3457 8.03125 38.8848 7.35742C39.4238 6.68359 40.4062 6.57422 41.0801 7.11328L43.6836 9.19531C43.9375 9.39844 44.1133 9.54004 44.2773 9.68652C45.8164 11.0664 46.7461 13.001 46.8633 15.0654C46.875 15.2852 46.875 15.5107 46.875 15.8369L46.875 38.541C46.875 41.1299 44.7754 43.2285 42.1875 43.2285C39.5996 43.2285 37.5 41.1299 37.5 38.541L37.5 38.3926C37.5 37.6123 36.8672 36.9785 36.0859 36.9785Z" fill="#0000DE" fill-opacity="1.000000" fill-rule="evenodd"/>
	</g>
</svg>
