<svg width="50.000000" height="50.000000" viewBox="0 0 50 50" fill="none" xmlns="http://www.w3.org/2000/svg" xmlns:xlink="http://www.w3.org/1999/xlink">
	<desc>
			Created with Pixso.
	</desc>
	<defs>
		<clipPath id="clip116_2240">
			<rect id="Bold Duotone / Money / Ruble" width="50.000000" height="50.000000" fill="white" fill-opacity="0"/>
		</clipPath>
	</defs>
	<g clip-path="url(#clip116_2240)">
		<g opacity="0.500000">
			<path id="Subtract" d="M45.832 25C45.832 36.5059 36.5059 45.834 25 45.834C13.4941 45.834 4.16602 36.5059 4.16602 25C4.16602 13.4941 13.4941 4.16699 25 4.16699C36.5059 4.16699 45.832 13.4941 45.832 25Z" fill="#0000DE" fill-opacity="1.000000" fill-rule="evenodd"/>
		</g>
		<path id="Subtract" d="M18.75 27.6035C17.8867 27.6035 17.1875 28.3037 17.1875 29.166C17.1875 30.0293 17.8867 30.7285 18.75 30.7285L19.2715 30.7285L19.2715 35.416C19.2715 36.2793 19.9707 36.9785 20.834 36.9785C21.6953 36.9785 22.3965 36.2793 22.3965 35.416L22.3965 30.7285L25 30.7285C25.8633 30.7285 26.5625 30.0293 26.5625 29.166C26.5625 28.3037 25.8633 27.6035 25 27.6035L22.3965 27.6035L22.3965 26.5625L28.125 26.5625C31.8652 26.5625 34.8965 23.5312 34.8965 19.791C34.8965 16.0518 31.8652 13.0205 28.125 13.0205L23.2539 13.0205C22.9492 13.0205 22.6348 13.0195 22.3457 13.0654C20.7871 13.3125 19.5625 14.5361 19.3164 16.0957C19.2695 16.3848 19.2695 16.7002 19.2715 17.0029L19.2715 23.4375L18.75 23.4375C17.8867 23.4375 17.1875 24.1367 17.1875 25C17.1875 25.8623 17.8867 26.5625 18.75 26.5625L19.2715 26.5625L19.2715 27.6035L18.75 27.6035ZM28.125 23.4375L22.3965 23.4375L22.3965 17.083C22.3965 16.8809 22.3965 16.7607 22.3984 16.6699C22.4004 16.6123 22.4023 16.5879 22.4023 16.582C22.4395 16.3613 22.6113 16.1885 22.832 16.1523C22.8379 16.1523 22.8633 16.1494 22.9199 16.1484C23.0117 16.1455 23.1309 16.1455 23.334 16.1455L28.125 16.1455C30.1387 16.1455 31.7715 17.7783 31.7715 19.791C31.7715 21.8047 30.1387 23.4375 28.125 23.4375Z" fill="#0000DE" fill-opacity="1.000000" fill-rule="evenodd"/>
	</g>
</svg>
