<svg width="24.000000" height="24.000000" viewBox="0 0 24 24" fill="none" xmlns="http://www.w3.org/2000/svg" xmlns:xlink="http://www.w3.org/1999/xlink">
	<desc>
			Created with Pixso.
	</desc>
	<defs>
		<clipPath id="clip116_2318">
			<rect id="Bold Duotone / Messages, Conversation  /  Letter" width="24.000000" height="24.000000" fill="white" fill-opacity="0"/>
		</clipPath>
	</defs>
	<g clip-path="url(#clip116_2318)">
		<g opacity="0.500000">
			<path id="Vector" d="M9.80078 3L14.1992 3C18.3477 3 20.4219 3 21.7109 4.31836C23 5.63574 23 7.75781 23 12C23 16.2422 23 18.3643 21.7109 19.6816C20.4219 21 18.3477 21 14.1992 21L9.80078 21C5.65234 21 3.57812 21 2.28906 19.6816C1 18.3643 1 16.2422 1 12C1 7.75781 1 5.63574 2.28906 4.31836C3.57812 3 5.65234 3 9.80078 3Z" fill="#0000DE" fill-opacity="1.000000" fill-rule="evenodd"/>
		</g>
		<path id="Vector" d="M19.127 8.03418C19.4766 7.74219 19.5254 7.22168 19.2324 6.87207C18.9414 6.52246 18.4219 6.47461 18.0703 6.7666L15.6973 8.74512C14.6699 9.60059 13.957 10.1924 13.3555 10.5791C12.7734 10.9541 12.3789 11.0791 12 11.0791C11.6191 11.0791 11.2246 10.9541 10.6426 10.5791C10.041 10.1924 9.32812 9.60059 8.30273 8.74512L5.92773 6.7666C5.57812 6.47461 5.05664 6.52246 4.76562 6.87207C4.47461 7.22168 4.52148 7.74219 4.87109 8.03418L7.28711 10.0479C8.26172 10.8604 9.05273 11.5186 9.75 11.9668C10.4766 12.4346 11.1836 12.7295 12 12.7295C12.8145 12.7295 13.5215 12.4346 14.248 11.9668C14.9453 11.5186 15.7363 10.8604 16.7109 10.0479L19.127 8.03418Z" fill="#0000DE" fill-opacity="1.000000" fill-rule="nonzero"/>
	</g>
</svg>
