<svg width="24.000000" height="24.000000" viewBox="0 0 24 24" fill="none" xmlns="http://www.w3.org/2000/svg" xmlns:xlink="http://www.w3.org/1999/xlink">
	<desc>
			Created with Pixso.
	</desc>
	<defs>
		<clipPath id="clip116_2315">
			<rect id="Bold Duotone / Messages, Conversation / Chat Round Dots" width="24.000000" height="24.000000" fill="white" fill-opacity="0"/>
		</clipPath>
	</defs>
	<g clip-path="url(#clip116_2315)">
		<g opacity="0.500000">
			<path id="Vector" d="M23 12C23 18.0752 18.0742 23 12 23C10.2402 23 8.57812 22.5869 7.10156 21.8525C6.71094 21.6572 6.26172 21.5918 5.83984 21.7051L3.39062 22.3604C2.32812 22.6445 1.35547 21.6719 1.64062 20.6094L2.29492 18.1611C2.4082 17.7373 2.34375 17.29 2.14844 16.8975C1.41406 15.4229 1 13.7598 1 12C1 5.9248 5.92578 1 12 1C18.0742 1 23 5.9248 23 12Z" fill="#0000DE" fill-opacity="1.000000" fill-rule="evenodd"/>
		</g>
		<path id="Vector" d="M16.4004 13.1006C15.793 13.1006 15.3008 12.6074 15.3008 12C15.3008 11.3926 15.793 10.9004 16.4004 10.9004C17.0078 10.9004 17.5 11.3926 17.5 12C17.5 12.6074 17.0078 13.1006 16.4004 13.1006ZM10.9004 12C10.9004 12.6074 11.3926 13.1006 12 13.1006C12.6074 13.1006 13.0996 12.6074 13.0996 12C13.0996 11.3926 12.6074 10.9004 12 10.9004C11.3926 10.9004 10.9004 11.3926 10.9004 12ZM6.5 12C6.5 12.6074 6.99219 13.1006 7.59961 13.1006C8.20703 13.1006 8.69922 12.6074 8.69922 12C8.69922 11.3926 8.20703 10.9004 7.59961 10.9004C6.99219 10.9004 6.5 11.3926 6.5 12Z" fill="#0000DE" fill-opacity="1.000000" fill-rule="evenodd"/>
	</g>
</svg>
