<svg width="24.000000" height="24.000000" viewBox="0 0 24 24" fill="none" xmlns="http://www.w3.org/2000/svg" xmlns:xlink="http://www.w3.org/1999/xlink">
	<desc>
			Created with Pixso.
	</desc>
	<defs>
		<clipPath id="clip116_2321">
			<rect id="Bold Duotone / Call / Phone Calling " width="24.000000" height="24.000000" fill="white" fill-opacity="0"/>
		</clipPath>
	</defs>
	<g clip-path="url(#clip116_2321)">
		<g opacity="0.500000">
			<path id="Vector" d="M15.5566 14.5479L15.1016 15.0273C15.1016 15.0273 14.0176 16.167 11.0625 13.0557C8.10742 9.94531 9.19141 8.80469 9.19141 8.80469L9.47656 8.50293C10.1836 7.75879 10.25 6.56543 9.63477 5.69336L8.37305 3.90918C7.60938 2.83008 6.13672 2.6875 5.26172 3.6084L3.69141 5.26074C3.25781 5.71777 2.9668 6.30957 3.00195 6.96582C3.09375 8.64551 3.81055 12.2588 7.81445 16.4756C12.0625 20.9463 16.0469 21.124 17.6758 20.9629C18.1914 20.9121 18.6406 20.6348 19.002 20.2539L20.4219 18.7588C21.3809 17.749 21.1094 16.0186 19.8828 15.3115L17.9727 14.2119C17.168 13.749 16.1855 13.8848 15.5566 14.5479Z" fill="#0000DE" fill-opacity="1.000000" fill-rule="nonzero"/>
		</g>
		<path id="Vector" d="M14.1211 1.25977C13.7129 1.19336 13.3262 1.4707 13.2598 1.87988C13.1934 2.28711 13.4785 2.67383 13.8867 2.74121C13.9414 2.75391 14.0879 2.78711 14.2031 2.82129C14.4355 2.88867 14.7812 3.00586 15.207 3.20117C16.0566 3.59082 17.2324 4.29199 18.4688 5.53027C19.707 6.76758 20.4082 7.94238 20.7988 8.79199C20.9941 9.21777 21.1113 9.56348 21.1777 9.7959C21.2129 9.91211 21.2344 10 21.2461 10.0547C21.252 10.083 21.2578 10.1123 21.2598 10.123C21.3281 10.5303 21.7129 10.8057 22.1191 10.7402C22.5293 10.6738 22.8027 10.2715 22.7363 9.8623L22.7324 9.83105C22.7266 9.80566 22.7188 9.77148 22.7109 9.72949C22.6914 9.64355 22.6621 9.52441 22.6191 9.37598C22.5332 9.0791 22.3906 8.66504 22.1621 8.16699C21.7051 7.1709 20.9062 5.84473 19.5293 4.46973C18.1543 3.09375 16.8281 2.29492 15.832 1.83789C15.334 1.60938 14.9199 1.4668 14.623 1.38086C14.4746 1.33789 14.3555 1.30859 14.2715 1.28906C14.2285 1.28027 14.1465 1.26465 14.1211 1.25977ZM14.4121 4.81445C14.0137 4.7002 13.5996 4.93066 13.4863 5.3291C13.373 5.72461 13.5996 6.13574 13.9902 6.25391L14.002 6.25684C14.0156 6.2627 14.0469 6.27344 14.0898 6.29199C14.1758 6.3291 14.3164 6.39648 14.5059 6.50781C14.8828 6.73047 15.4512 7.13379 16.1523 7.83301C16.8516 8.5332 17.2539 9.10254 17.4766 9.47949C17.5879 9.66797 17.6562 9.80957 17.6934 9.89551C17.7109 9.93848 17.7227 9.96875 17.7285 9.9834L17.7305 9.99414C17.8496 10.3857 18.2598 10.6123 18.6562 10.499C19.0547 10.3857 19.2852 9.96973 19.1699 9.57227L18.4512 9.77734C19.1699 9.57227 19.1699 9.57031 19.1699 9.57031L19.1699 9.56934L19.168 9.56543L19.166 9.55762L19.1602 9.53809C19.1562 9.52344 19.1484 9.50391 19.1406 9.48145C19.125 9.43652 19.1035 9.37793 19.0723 9.30469C19.0098 9.15918 18.9121 8.95996 18.7676 8.71582C18.4785 8.22559 17.9961 7.55762 17.2129 6.77246C16.4277 5.98828 15.7598 5.50684 15.2695 5.2168C15.0254 5.07227 14.8262 4.97559 14.6797 4.91309C14.6074 4.88184 14.5488 4.85938 14.5039 4.84375C14.4805 4.83594 14.4609 4.8291 14.4473 4.82422L14.4277 4.81836L14.4199 4.81641L14.416 4.81543L14.4141 4.81445L14.4121 4.81445Z" fill="#0000DE" fill-opacity="1.000000" fill-rule="evenodd"/>
	</g>
</svg>
