<svg width="24.000000" height="13.692383" viewBox="0 0 24 13.6924" fill="none" xmlns="http://www.w3.org/2000/svg" xmlns:xlink="http://www.w3.org/1999/xlink">
	<defs/>
	<path id="path2442" d="M11.7422 13.6348L13.1777 13.6348C13.1777 13.6348 13.6094 13.5869 13.832 13.3486C14.0352 13.1289 14.0293 12.7188 14.0293 12.7188C14.0293 12.7188 14 10.793 14.8945 10.5098C15.7754 10.2305 16.9062 12.3701 18.1035 13.1934C19.0098 13.8154 19.6992 13.6797 19.6992 13.6797L22.9043 13.6348C22.9043 13.6348 24.582 13.5312 23.7852 12.2129C23.7207 12.1055 23.3223 11.2373 21.4023 9.45508C19.3926 7.58984 19.6621 7.8916 22.084 4.66504C23.5566 2.7002 24.1465 1.50098 23.9629 0.987305C23.7871 0.498047 22.7031 0.626953 22.7031 0.626953L19.0938 0.649414C19.0938 0.649414 18.8262 0.612305 18.6289 0.731445C18.4336 0.847656 18.3105 1.11816 18.3105 1.11816C18.3105 1.11816 17.7383 2.63867 16.9766 3.93262C15.3691 6.66113 14.7266 6.80566 14.4648 6.63574C13.8535 6.24023 14.0059 5.0498 14.0059 4.20312C14.0059 1.55859 14.4082 0.456055 13.2246 0.170898C12.834 0.0761719 12.5449 0.0136719 11.541 0.00292969C10.2539 -0.00976562 9.16406 0.00683594 8.54688 0.30957C8.13672 0.510742 7.81836 0.958008 8.01172 0.984375C8.25 1.01562 8.79102 1.12988 9.07617 1.51953C9.44727 2.02246 9.43359 3.15234 9.43359 3.15234C9.43359 3.15234 9.64648 6.26562 8.9375 6.65137C8.45117 6.91699 7.7832 6.37598 6.35156 3.90039C5.61719 2.63184 5.0625 1.23047 5.0625 1.23047C5.0625 1.23047 4.95703 0.96875 4.76562 0.828125C4.53516 0.658203 4.21094 0.604492 4.21094 0.604492L0.783203 0.626953C0.783203 0.626953 0.267578 0.641602 0.078125 0.865234C-0.0898438 1.06445 0.0644531 1.47559 0.0644531 1.47559C0.0644531 1.47559 2.75 7.75684 5.78906 10.9229C8.57812 13.8252 11.7422 13.6348 11.7422 13.6348Z" fill="#0000DE" fill-opacity="1.000000" fill-rule="evenodd"/>
</svg>
