<svg width="66.000000" height="66.000000" viewBox="0 0 66 66" fill="none" xmlns="http://www.w3.org/2000/svg" xmlns:xlink="http://www.w3.org/1999/xlink">
	<desc>
			Created with Pixso.
	</desc>
	<defs>
		<clipPath id="clip117_3041">
			<rect id="Bold / Transport, Parts, Service / Gas Station" width="24.081083" height="24.081083" transform="translate(21.406250 20.513672)" fill="white" fill-opacity="0"/>
		</clipPath>
	</defs>
	<circle id="Ellipse 801" cx="33.000000" cy="33.000000" r="33.000000" fill="#0000DE" fill-opacity="0.400000"/>
	<circle id="Ellipse 800" cx="33.000000" cy="32.999023" r="24.972973" fill="#0000DE" fill-opacity="1.000000"/>
	<g clip-path="url(#clip117_3041)">
		<path id="Vector" d="M30.1855 22.5205L31.1895 22.5205C34.0273 22.5205 35.4473 22.5205 36.3281 23.4023C37.2109 24.2842 37.2109 25.7031 37.2109 28.541L37.2109 36.8184L38.7871 36.8184C39.9941 36.8184 40.9727 37.7969 40.9727 39.0049L40.9727 39.0762C40.9727 39.4922 41.3105 39.8291 41.7246 39.8291C42.1406 39.8291 42.4785 39.4922 42.4785 39.0762L42.4785 34.3105L41.25 33.9004C40.6348 33.6963 40.2207 33.1211 40.2207 32.4727L40.2207 30.0459C40.2207 29.2148 40.8945 28.541 41.7246 28.541L42.4785 28.541L42.4785 28.1621C42.4785 27.9766 42.4766 27.9121 42.4746 27.8545C42.4414 27.2578 42.1719 26.6982 41.7266 26.2998C41.6836 26.2607 41.6348 26.2207 41.4883 26.1045L40.252 25.1152C39.9277 24.8555 39.875 24.3818 40.1348 24.0576C40.3945 23.7324 40.8672 23.6797 41.1914 23.9395L42.4453 24.9424C42.5684 25.041 42.6523 25.1084 42.7324 25.1787C43.4727 25.8438 43.9219 26.7754 43.9766 27.7695C43.9824 27.876 43.9824 27.9844 43.9824 28.1416L43.9824 39.0762C43.9824 40.3232 42.9727 41.334 41.7246 41.334C40.4785 41.334 39.4668 40.3232 39.4668 39.0762L39.4668 39.0049C39.4668 38.6289 39.1621 38.3242 38.7871 38.3242L37.2109 38.3242L37.2109 41.8359L38.3379 41.8359C38.752 41.8359 39.0898 42.1729 39.0898 42.5879C39.0898 43.0039 38.752 43.3408 38.3379 43.3408L23.1621 43.3408C22.748 43.3408 22.4102 43.0039 22.4102 42.5879C22.4102 42.1729 22.748 41.8359 23.1621 41.8359L24.166 41.8359L24.166 28.541C24.166 25.7031 24.166 24.2842 25.0469 23.4023C25.9297 22.5205 27.3477 22.5205 30.1855 22.5205ZM28.4297 36.8184C28.0156 36.8184 27.6777 37.1553 27.6777 37.5713C27.6777 37.9863 28.0156 38.3232 28.4297 38.3232L33.4473 38.3232C33.8633 38.3232 34.1992 37.9863 34.1992 37.5713C34.1992 37.1553 33.8633 36.8184 33.4473 36.8184L28.4297 36.8184ZM32.4434 26.5342L29.4336 26.5342C28.4883 26.5342 28.0156 26.5342 27.7207 26.8281C27.4277 27.1221 27.4277 27.5947 27.4277 28.541C27.4277 29.4863 27.4277 29.96 27.7207 30.2539C28.0156 30.5479 28.4883 30.5479 29.4336 30.5479L32.4434 30.5479C33.3906 30.5479 33.8633 30.5479 34.1562 30.2539C34.4512 29.96 34.4512 29.4863 34.4512 28.541C34.4512 27.5947 34.4512 27.1221 34.1562 26.8281C33.8633 26.5342 33.3906 26.5342 32.4434 26.5342Z" fill="#FFFFFF" fill-opacity="1.000000" fill-rule="evenodd"/>
	</g>
</svg>
