<svg width="84.000000" height="84.000000" viewBox="0 0 84 84" fill="none" xmlns="http://www.w3.org/2000/svg" xmlns:xlink="http://www.w3.org/1999/xlink">
	<desc>
			Created with Pixso.
	</desc>
	<defs>
		<clipPath id="clip117_3033">
			<rect id="Bold / Transport, Parts, Service / Gas Station" width="30.648651" height="30.648651" transform="translate(27.244141 26.109375)" fill="white" fill-opacity="0"/>
		</clipPath>
	</defs>
	<circle id="Ellipse 801" cx="42.000000" cy="42.000000" r="42.000000" fill="#0000DE" fill-opacity="0.400000"/>
	<circle id="Ellipse 800" cx="42.001953" cy="42.001953" r="31.783783" fill="#0000DE" fill-opacity="1.000000"/>
	<g clip-path="url(#clip117_3033)">
		<path id="Vector" d="M38.418 28.6631L39.6953 28.6631C43.3066 28.6631 45.1133 28.6631 46.2363 29.7852C47.3574 30.9072 47.3574 32.7129 47.3574 36.3252L47.3574 46.8604L49.3652 46.8604C50.9004 46.8604 52.1465 48.1064 52.1465 49.6426L52.1465 49.7344C52.1465 50.2627 52.5762 50.6914 53.1035 50.6914C53.6328 50.6914 54.0625 50.2627 54.0625 49.7344L54.0625 43.668L52.498 43.1475C51.7168 42.8867 51.1895 42.1543 51.1895 41.3301L51.1895 38.2412C51.1895 37.1826 52.0469 36.3252 53.1035 36.3252L54.0625 36.3252L54.0625 35.8428C54.0625 35.6064 54.0625 35.5254 54.0566 35.4512C54.0156 34.6924 53.6738 33.9805 53.1074 33.4727C53.0508 33.4238 52.9883 33.3721 52.8027 33.2246L51.2285 31.9648C50.8164 31.6348 50.748 31.0322 51.0801 30.6191C51.4102 30.2061 52.0117 30.1387 52.4258 30.4697L54.0215 31.7451C54.1777 31.8701 54.2852 31.957 54.3848 32.0469C55.3281 32.8926 55.8984 34.0781 55.9707 35.3438C55.9785 35.4785 55.9785 35.6162 55.9785 35.8164L55.9785 49.7344C55.9785 51.3213 54.6914 52.6074 53.1035 52.6074C51.5176 52.6074 50.2305 51.3213 50.2305 49.7344L50.2305 49.6426C50.2305 49.1641 49.8438 48.7764 49.3652 48.7764L47.3574 48.7764L47.3574 53.2461L48.793 53.2461C49.3203 53.2461 49.75 53.6748 49.75 54.2041C49.75 54.7324 49.3203 55.1611 48.793 55.1611L29.4785 55.1611C28.9512 55.1611 28.5215 54.7324 28.5215 54.2041C28.5215 53.6748 28.9512 53.2461 29.4785 53.2461L30.7559 53.2461L30.7559 36.3252C30.7559 32.7129 30.7559 30.9072 31.8789 29.7852C33 28.6631 34.8066 28.6631 38.418 28.6631ZM36.1836 46.8604C35.6543 46.8604 35.2266 47.2891 35.2266 47.8184C35.2266 48.3477 35.6543 48.7764 36.1836 48.7764L42.5684 48.7764C43.0977 48.7764 43.5273 48.3477 43.5273 47.8184C43.5273 47.2891 43.0977 46.8604 42.5684 46.8604L36.1836 46.8604ZM41.291 33.7715L37.4609 33.7715C36.2559 33.7715 35.6543 33.7715 35.2812 34.1455C34.9062 34.5195 34.9062 35.1211 34.9062 36.3252C34.9062 37.5293 34.9062 38.1309 35.2812 38.5049C35.6543 38.8789 36.2559 38.8789 37.4609 38.8789L41.291 38.8789C42.4961 38.8789 43.0977 38.8789 43.4727 38.5049C43.8457 38.1309 43.8457 37.5293 43.8457 36.3252C43.8457 35.1211 43.8457 34.5195 43.4727 34.1455C43.0977 33.7715 42.4961 33.7715 41.291 33.7715Z" fill="#FFFFFF" fill-opacity="1.000000" fill-rule="evenodd"/>
	</g>
</svg>
