<svg width="74.000000" height="74.000000" viewBox="0 0 74 74" fill="none" xmlns="http://www.w3.org/2000/svg" xmlns:xlink="http://www.w3.org/1999/xlink">
	<desc>
			Created with Pixso.
	</desc>
	<defs>
		<clipPath id="clip137_864">
			<rect id="Bold / Transport, Parts, Service / Gas Station" width="27.000000" height="27.000000" transform="translate(24.000000 23.000000)" fill="white" fill-opacity="0"/>
		</clipPath>
	</defs>
	<circle id="Ellipse 801" cx="37.000000" cy="37.000000" r="37.000000" fill="#0000DE" fill-opacity="0.400000"/>
	<circle id="Ellipse 800" cx="37.000000" cy="37.000000" r="28.000000" fill="#0000DE" fill-opacity="1.000000"/>
	<g clip-path="url(#clip137_864)">
		<path id="Vector" d="M33.8438 25.25L34.9688 25.25C38.1504 25.25 39.7422 25.25 40.7305 26.2383C41.7188 27.2266 41.7188 28.8184 41.7188 32L41.7188 41.2812L43.4863 41.2812C44.8398 41.2812 45.9375 42.3789 45.9375 43.7324L45.9375 43.8125C45.9375 44.2783 46.3145 44.6562 46.7812 44.6562C47.248 44.6562 47.625 44.2783 47.625 43.8125L47.625 38.4688L46.248 38.0098C45.5586 37.7803 45.0938 37.1348 45.0938 36.4092L45.0938 33.6875C45.0938 32.7559 45.8496 32 46.7812 32L47.625 32L47.625 31.5752C47.625 31.3672 47.625 31.2959 47.6211 31.2305C47.584 30.5615 47.2812 29.9346 46.7832 29.4873C46.7344 29.4434 46.6797 29.3984 46.5156 29.2686L45.1289 28.1592C44.7656 27.8682 44.707 27.3369 44.998 26.9727C45.2891 26.6094 45.8203 26.5498 46.1836 26.8408L47.5879 27.9658C47.7266 28.0752 47.8223 28.1514 47.9102 28.2305C48.7402 28.9766 49.2441 30.0205 49.3066 31.1357C49.3125 31.2539 49.3125 31.376 49.3125 31.5518L49.3125 43.8125C49.3125 45.2109 48.1797 46.3438 46.7812 46.3438C45.3828 46.3438 44.25 45.2109 44.25 43.8125L44.25 43.7324C44.25 43.3105 43.9082 42.9688 43.4863 42.9688L41.7188 42.9688L41.7188 46.9062L42.9824 46.9062C43.4492 46.9062 43.8262 47.2842 43.8262 47.75C43.8262 48.2158 43.4492 48.5938 42.9824 48.5938L25.9688 48.5938C25.502 48.5938 25.125 48.2158 25.125 47.75C25.125 47.2842 25.502 46.9062 25.9688 46.9062L27.0938 46.9062L27.0938 32C27.0938 28.8184 27.0938 27.2266 28.082 26.2383C29.0703 25.25 30.6621 25.25 33.8438 25.25ZM31.875 41.2812C31.4082 41.2812 31.0312 41.6592 31.0312 42.125C31.0312 42.5908 31.4082 42.9688 31.875 42.9688L37.5 42.9688C37.9668 42.9688 38.3438 42.5908 38.3438 42.125C38.3438 41.6592 37.9668 41.2812 37.5 41.2812L31.875 41.2812ZM36.375 29.75L33 29.75C31.9395 29.75 31.4082 29.75 31.0801 30.0791C30.75 30.4092 30.75 30.9395 30.75 32C30.75 33.0605 30.75 33.5908 31.0801 33.9209C31.4082 34.25 31.9395 34.25 33 34.25L36.375 34.25C37.4355 34.25 37.9668 34.25 38.2949 33.9209C38.625 33.5908 38.625 33.0605 38.625 32C38.625 30.9395 38.625 30.4092 38.2949 30.0791C37.9668 29.75 37.4355 29.75 36.375 29.75Z" fill="#FFFFFF" fill-opacity="1.000000" fill-rule="evenodd"/>
	</g>
</svg>
