<svg width="82.000000" height="82.000000" viewBox="0 0 82 82" fill="none" xmlns="http://www.w3.org/2000/svg" xmlns:xlink="http://www.w3.org/1999/xlink">
	<desc>
			Created with Pixso.
	</desc>
	<defs>
		<clipPath id="clip137_872">
			<rect id="Bold / Transport, Parts, Service / Gas Station" width="29.918921" height="29.918921" transform="translate(26.595703 25.487305)" fill="white" fill-opacity="0"/>
		</clipPath>
	</defs>
	<circle id="Ellipse 801" cx="41.000000" cy="41.000000" r="41.000000" fill="#0000DE" fill-opacity="0.400000"/>
	<circle id="Ellipse 800" cx="41.001953" cy="41.000000" r="31.027027" fill="#0000DE" fill-opacity="1.000000"/>
	<g clip-path="url(#clip137_872)">
		<path id="Vector" d="M37.5039 27.9805L38.75 27.9805C42.2754 27.9805 44.0391 27.9805 45.1348 29.0762C46.2285 30.1709 46.2285 31.9346 46.2285 35.46L46.2285 45.7451L48.1875 45.7451C49.6875 45.7451 50.9043 46.9609 50.9043 48.4609L50.9043 48.5498C50.9043 49.0664 51.3223 49.4844 51.8398 49.4844C52.3555 49.4844 52.7734 49.0664 52.7734 48.5498L52.7734 42.6279L51.248 42.1191C50.4844 41.8652 49.9688 41.1504 49.9688 40.3457L49.9688 37.3301C49.9688 36.2979 50.8066 35.46 51.8398 35.46L52.7734 35.46L52.7734 34.9893C52.7734 34.7588 52.7734 34.6797 52.7695 34.6074C52.7285 33.8662 52.3945 33.1719 51.8418 32.6758C51.7871 32.6279 51.7266 32.5781 51.5449 32.4336L50.0078 31.2041C49.6055 30.8809 49.5391 30.293 49.8633 29.8896C50.1855 29.4863 50.7734 29.4209 51.1758 29.7441L52.7344 30.9893C52.8867 31.1113 52.9922 31.1953 53.0898 31.2832C54.0117 32.1094 54.5684 33.2666 54.6367 34.502C54.6445 34.6338 54.6445 34.7686 54.6445 34.9639L54.6445 48.5498C54.6445 50.0986 53.3887 51.3545 51.8398 51.3545C50.291 51.3545 49.0352 50.0986 49.0352 48.5498L49.0352 48.4609C49.0352 47.9932 48.6562 47.6152 48.1875 47.6152L46.2285 47.6152L46.2285 51.9775L47.6309 51.9775C48.1465 51.9775 48.5645 52.3965 48.5645 52.9131C48.5645 53.4297 48.1465 53.8477 47.6309 53.8477L28.7773 53.8477C28.2598 53.8477 27.8418 53.4297 27.8418 52.9131C27.8418 52.3965 28.2598 51.9775 28.7773 51.9775L30.0234 51.9775L30.0234 35.46C30.0234 31.9346 30.0234 30.1709 31.1191 29.0762C32.2148 27.9805 33.9766 27.9805 37.5039 27.9805ZM35.3223 45.7451C34.8047 45.7451 34.3867 46.1631 34.3867 46.6797C34.3867 47.1963 34.8047 47.6152 35.3223 47.6152L41.5547 47.6152C42.0703 47.6152 42.4902 47.1963 42.4902 46.6797C42.4902 46.1631 42.0703 45.7451 41.5547 45.7451L35.3223 45.7451ZM40.3086 32.9668L36.5684 32.9668C35.3926 32.9668 34.8047 32.9668 34.4395 33.332C34.0742 33.6973 34.0742 34.2852 34.0742 35.46C34.0742 36.6357 34.0742 37.2236 34.4395 37.5879C34.8047 37.9531 35.3926 37.9531 36.5684 37.9531L40.3086 37.9531C41.4824 37.9531 42.0703 37.9531 42.4355 37.5879C42.8008 37.2236 42.8008 36.6357 42.8008 35.46C42.8008 34.2852 42.8008 33.6973 42.4355 33.332C42.0703 32.9668 41.4824 32.9668 40.3086 32.9668Z" fill="#FFFFFF" fill-opacity="1.000000" fill-rule="evenodd"/>
	</g>
</svg>
