<svg width="66.000000" height="66.000000" viewBox="0 0 66 66" fill="none" xmlns="http://www.w3.org/2000/svg" xmlns:xlink="http://www.w3.org/1999/xlink">
	<desc>
			Created with Pixso.
	</desc>
	<defs>
		<clipPath id="clip137_876">
			<rect id="Bold / Transport, Parts, Service / Gas Station" width="24.081083" height="24.081083" transform="translate(21.406250 20.513672)" fill="white" fill-opacity="0"/>
		</clipPath>
	</defs>
	<circle id="Ellipse 801" cx="33.000000" cy="33.000000" r="33.000000" fill="#0000DE" fill-opacity="0.400000"/>
	<circle id="Ellipse 800" cx="33.000000" cy="33.000000" r="24.972973" fill="#0000DE" fill-opacity="1.000000"/>
	<g clip-path="url(#clip137_876)">
		<path id="Vector" d="M30.1855 22.5215L31.1895 22.5215C34.0273 22.5215 35.4473 22.5215 36.3281 23.4033C37.2109 24.2852 37.2109 25.7041 37.2109 28.542L37.2109 36.8193L38.7871 36.8193C39.9941 36.8193 40.9727 37.7979 40.9727 39.0059L40.9727 39.0771C40.9727 39.4932 41.3105 39.8301 41.7246 39.8301C42.1406 39.8301 42.4785 39.4932 42.4785 39.0771L42.4785 34.3115L41.25 33.9014C40.6348 33.6973 40.2207 33.1221 40.2207 32.4736L40.2207 30.0469C40.2207 29.2158 40.8945 28.542 41.7246 28.542L42.4785 28.542L42.4785 28.1631C42.4785 27.9775 42.4766 27.9131 42.4746 27.8555C42.4414 27.2588 42.1719 26.6992 41.7266 26.3008C41.6836 26.2617 41.6348 26.2217 41.4883 26.1055L40.252 25.1162C39.9277 24.8564 39.875 24.3828 40.1348 24.0586C40.3945 23.7334 40.8672 23.6807 41.1914 23.9404L42.4453 24.9434C42.5684 25.042 42.6523 25.1094 42.7324 25.1797C43.4727 25.8447 43.9219 26.7764 43.9766 27.7705C43.9824 27.877 43.9824 27.9854 43.9824 28.1426L43.9824 39.0771C43.9824 40.3242 42.9727 41.335 41.7246 41.335C40.4785 41.335 39.4668 40.3242 39.4668 39.0771L39.4668 39.0059C39.4668 38.6299 39.1621 38.3252 38.7871 38.3252L37.2109 38.3252L37.2109 41.8369L38.3379 41.8369C38.752 41.8369 39.0898 42.1738 39.0898 42.5889C39.0898 43.0049 38.752 43.3418 38.3379 43.3418L23.1621 43.3418C22.748 43.3418 22.4102 43.0049 22.4102 42.5889C22.4102 42.1738 22.748 41.8369 23.1621 41.8369L24.166 41.8369L24.166 28.542C24.166 25.7041 24.166 24.2852 25.0469 23.4033C25.9297 22.5215 27.3477 22.5215 30.1855 22.5215ZM28.4297 36.8193C28.0156 36.8193 27.6777 37.1562 27.6777 37.5723C27.6777 37.9873 28.0156 38.3242 28.4297 38.3242L33.4473 38.3242C33.8633 38.3242 34.1992 37.9873 34.1992 37.5723C34.1992 37.1562 33.8633 36.8193 33.4473 36.8193L28.4297 36.8193ZM32.4434 26.5352L29.4336 26.5352C28.4883 26.5352 28.0156 26.5352 27.7207 26.8291C27.4277 27.123 27.4277 27.5957 27.4277 28.542C27.4277 29.4873 27.4277 29.9609 27.7207 30.2549C28.0156 30.5488 28.4883 30.5488 29.4336 30.5488L32.4434 30.5488C33.3906 30.5488 33.8633 30.5488 34.1562 30.2549C34.4512 29.9609 34.4512 29.4873 34.4512 28.542C34.4512 27.5957 34.4512 27.123 34.1562 26.8291C33.8633 26.5352 33.3906 26.5352 32.4434 26.5352Z" fill="#FFFFFF" fill-opacity="1.000000" fill-rule="evenodd"/>
	</g>
</svg>
