<svg width="50.000000" height="50.000000" viewBox="0 0 50 50" fill="none" xmlns="http://www.w3.org/2000/svg" xmlns:xlink="http://www.w3.org/1999/xlink">
	<desc>
			Created with Pixso.
	</desc>
	<defs>
		<clipPath id="clip137_868">
			<rect id="Bold / Transport, Parts, Service / Gas Station" width="18.243244" height="18.243244" transform="translate(16.216797 15.541016)" fill="white" fill-opacity="0"/>
		</clipPath>
	</defs>
	<circle id="Ellipse 801" cx="25.000000" cy="25.000000" r="25.000000" fill="#0000DE" fill-opacity="0.400000"/>
	<circle id="Ellipse 800" cx="25.000000" cy="25.000000" r="18.918919" fill="#0000DE" fill-opacity="1.000000"/>
	<g clip-path="url(#clip137_868)">
		<path id="Vector" d="M22.8672 17.0605L23.627 17.0605C25.7773 17.0605 26.8535 17.0605 27.5215 17.7285C28.1895 18.3965 28.1895 19.4717 28.1895 21.6211L28.1895 27.8926L29.3828 27.8926C30.2969 27.8926 31.0391 28.6338 31.0391 29.5488L31.0391 29.6025C31.0391 29.918 31.2949 30.1729 31.6094 30.1729C31.9238 30.1729 32.1797 29.918 32.1797 29.6025L32.1797 25.9922L31.248 25.6816C30.7832 25.5264 30.4688 25.0908 30.4688 24.6006L30.4688 22.7617C30.4688 22.1318 30.9785 21.6211 31.6094 21.6211L32.1797 21.6211L32.1797 21.334C32.1797 21.1934 32.1797 21.1455 32.1758 21.1016C32.1504 20.6494 31.9473 20.2256 31.6113 19.9238C31.5781 19.8945 31.5391 19.8633 31.4297 19.7754L30.4922 19.0264C30.2461 18.8291 30.207 18.4707 30.4043 18.2246C30.5996 17.9785 30.959 17.9395 31.2051 18.1357L32.1543 18.8955C32.248 18.9697 32.3125 19.0215 32.3711 19.0742C32.9336 19.5781 33.2734 20.2842 33.3145 21.0371C33.3203 21.1172 33.3203 21.1992 33.3203 21.3184L33.3203 29.6025C33.3203 30.5479 32.5547 31.3135 31.6094 31.3135C30.6641 31.3135 29.8984 30.5479 29.8984 29.6025L29.8984 29.5488C29.8984 29.2637 29.668 29.0322 29.3828 29.0322L28.1895 29.0322L28.1895 31.6934L29.043 31.6934C29.3574 31.6934 29.6133 31.9482 29.6133 32.2637C29.6133 32.5781 29.3574 32.833 29.043 32.833L17.5469 32.833C17.2324 32.833 16.9766 32.5781 16.9766 32.2637C16.9766 31.9482 17.2324 31.6934 17.5469 31.6934L18.3066 31.6934L18.3066 21.6211C18.3066 19.4717 18.3066 18.3965 18.9746 17.7285C19.6426 17.0605 20.7168 17.0605 22.8672 17.0605ZM21.5371 27.8926C21.2227 27.8926 20.9668 28.1475 20.9668 28.4629C20.9668 28.7773 21.2227 29.0322 21.5371 29.0322L25.3379 29.0322C25.6523 29.0322 25.9082 28.7773 25.9082 28.4629C25.9082 28.1475 25.6523 27.8926 25.3379 27.8926L21.5371 27.8926ZM24.5781 20.1016L22.2969 20.1016C21.5801 20.1016 21.2227 20.1016 21 20.3232C20.7773 20.5459 20.7773 20.9043 20.7773 21.6211C20.7773 22.3379 20.7773 22.6963 21 22.9189C21.2227 23.1416 21.5801 23.1416 22.2969 23.1416L24.5781 23.1416C25.2949 23.1416 25.6523 23.1416 25.875 22.9189C26.0977 22.6963 26.0977 22.3379 26.0977 21.6211C26.0977 20.9043 26.0977 20.5459 25.875 20.3232C25.6523 20.1016 25.2949 20.1016 24.5781 20.1016Z" fill="#FFFFFF" fill-opacity="1.000000" fill-rule="evenodd"/>
	</g>
</svg>
