<svg width="48.000000" height="48.000000" viewBox="0 0 48 48" fill="none" xmlns="http://www.w3.org/2000/svg" xmlns:xlink="http://www.w3.org/1999/xlink">
	<desc>
			Created with Pixso.
	</desc>
	<defs>
		<clipPath id="clip137_880">
			<rect id="Bold / Transport, Parts, Service / Gas Station" width="17.513514" height="17.513514" transform="translate(15.568359 14.918945)" fill="white" fill-opacity="0"/>
		</clipPath>
	</defs>
	<circle id="Ellipse 801" cx="24.000000" cy="24.000000" r="24.000000" fill="#0000DE" fill-opacity="0.400000"/>
	<circle id="Ellipse 800" cx="24.000000" cy="24.000000" r="18.162163" fill="#0000DE" fill-opacity="1.000000"/>
	<g clip-path="url(#clip137_880)">
		<path id="Vector" d="M21.9531 16.3789L22.6816 16.3789C24.7461 16.3789 25.7773 16.3789 26.4199 17.0205C27.0605 17.6611 27.0605 18.6934 27.0605 20.7568L27.0605 26.7773L28.207 26.7773C29.0859 26.7773 29.7969 27.4893 29.7969 28.3672L29.7969 28.4199C29.7969 28.7217 30.041 28.9668 30.3438 28.9668C30.6465 28.9668 30.8906 28.7217 30.8906 28.4199L30.8906 24.9531L29.998 24.6553C29.5508 24.5068 29.25 24.0879 29.25 23.6172L29.25 21.8516C29.25 21.2471 29.7402 20.7568 30.3438 20.7568L30.8906 20.7568L30.8906 20.4814C30.8906 20.3467 30.8906 20.3008 30.8887 20.2578C30.8652 19.8242 30.6699 19.418 30.3457 19.1279C30.3145 19.0986 30.2773 19.0703 30.1719 18.9854L29.2734 18.2656C29.0371 18.0771 28.998 17.7324 29.1875 17.4961C29.375 17.2607 29.7207 17.2227 29.957 17.4111L30.8672 18.1406C30.957 18.2119 31.0195 18.2607 31.0762 18.3125C31.6152 18.7959 31.9414 19.4736 31.9824 20.1963C31.9863 20.2734 31.9863 20.3525 31.9863 20.4668L31.9863 28.4199C31.9863 29.3262 31.25 30.0615 30.3438 30.0615C29.4375 30.0615 28.7031 29.3262 28.7031 28.4199L28.7031 28.3672C28.7031 28.0938 28.4805 27.8721 28.207 27.8721L27.0605 27.8721L27.0605 30.4258L27.8809 30.4258C28.1816 30.4258 28.4277 30.6709 28.4277 30.9736C28.4277 31.2754 28.1816 31.5205 27.8809 31.5205L16.8438 31.5205C16.541 31.5205 16.2969 31.2754 16.2969 30.9736C16.2969 30.6709 16.541 30.4258 16.8438 30.4258L17.5742 30.4258L17.5742 20.7568C17.5742 18.6934 17.5742 17.6611 18.2148 17.0205C18.8555 16.3789 19.8887 16.3789 21.9531 16.3789ZM20.6758 26.7773C20.373 26.7773 20.1289 27.0225 20.1289 27.3252C20.1289 27.627 20.373 27.8721 20.6758 27.8721L24.3242 27.8721C24.627 27.8721 24.8711 27.627 24.8711 27.3252C24.8711 27.0225 24.627 26.7773 24.3242 26.7773L20.6758 26.7773ZM23.5938 19.2979L21.4043 19.2979C20.7168 19.2979 20.373 19.2979 20.1602 19.5117C19.9453 19.7256 19.9453 20.0693 19.9453 20.7568C19.9453 21.4453 19.9453 21.7891 20.1602 22.0029C20.373 22.2168 20.7168 22.2168 21.4043 22.2168L23.5938 22.2168C24.2812 22.2168 24.627 22.2168 24.8398 22.0029C25.0527 21.7891 25.0527 21.4453 25.0527 20.7568C25.0527 20.0693 25.0527 19.7256 24.8398 19.5117C24.627 19.2979 24.2812 19.2979 23.5938 19.2979Z" fill="#FFFFFF" fill-opacity="1.000000" fill-rule="evenodd"/>
	</g>
</svg>
