<svg width="50.000000" height="50.000000" viewBox="0 0 50 50" fill="none" xmlns="http://www.w3.org/2000/svg" xmlns:xlink="http://www.w3.org/1999/xlink">
	<desc>
			Created with Pixso.
	</desc>
	<defs>
		<clipPath id="clip123_1880">
			<rect id="Bold Duotone / Messages, Conversation  /  Letter" width="24.000000" height="24.000000" transform="translate(13.000000 13.000000)" fill="white" fill-opacity="0"/>
		</clipPath>
	</defs>
	<rect id="Rectangle 943" rx="15.000000" width="50.000000" height="50.000000" fill="#FAFAFA" fill-opacity="1.000000"/>
	<g clip-path="url(#clip123_1880)">
		<g opacity="0.500000">
			<path id="Vector" d="M22.8008 16L27.1992 16C31.3477 16 33.4219 16 34.7109 17.3184C36 18.6357 36 20.7578 36 25C36 29.2422 36 31.3643 34.7109 32.6816C33.4219 34 31.3477 34 27.1992 34L22.8008 34C18.6523 34 16.5781 34 15.2891 32.6816C14 31.3643 14 29.2422 14 25C14 20.7578 14 18.6357 15.2891 17.3184C16.5781 16 18.6523 16 22.8008 16Z" fill="#0000DE" fill-opacity="1.000000" fill-rule="evenodd"/>
		</g>
		<path id="Vector" d="M32.1289 21.0342C32.4766 20.7422 32.5234 20.2217 32.2344 19.8721C31.9414 19.5225 31.4219 19.4746 31.0703 19.7666L28.6953 21.7451C27.6719 22.6006 26.957 23.1924 26.3555 23.5791C25.7734 23.9541 25.3789 24.0791 25 24.0791C24.6211 24.0791 24.2266 23.9541 23.6406 23.5791C23.0391 23.1924 22.3281 22.6006 21.3008 21.7451L18.9258 19.7666C18.5781 19.4746 18.0586 19.5225 17.7656 19.8721C17.4727 20.2217 17.5195 20.7422 17.8711 21.0342L20.2891 23.0479C21.2617 23.8604 22.0508 24.5186 22.75 24.9668C23.4766 25.4346 24.1836 25.7295 25 25.7295C25.8125 25.7295 26.5234 25.4346 27.25 24.9668C27.9453 24.5186 28.7344 23.8604 29.7109 23.0479L32.1289 21.0342Z" fill="#0000DE" fill-opacity="1.000000" fill-rule="nonzero"/>
	</g>
</svg>
