<svg width="50.000000" height="50.000000" viewBox="0 0 50 50" fill="none" xmlns="http://www.w3.org/2000/svg" xmlns:xlink="http://www.w3.org/1999/xlink">
	<desc>
			Created with Pixso.
	</desc>
	<defs>
		<clipPath id="clip123_1846">
			<rect id="Bold Duotone / Map &amp; Location / Global" width="24.000000" height="24.000000" transform="translate(13.000000 13.000000)" fill="white" fill-opacity="0"/>
		</clipPath>
	</defs>
	<rect id="Rectangle 943" rx="15.000000" width="50.000000" height="50.000000" fill="#FAFAFA" fill-opacity="1.000000"/>
	<g clip-path="url(#clip123_1846)">
		<path id="Vector" d="M15.0273 24.25C15.4102 19.0771 19.7305 15 25 15C24.168 15 23.4297 15.3643 22.8203 15.9209C22.2148 16.4756 21.7031 17.249 21.2891 18.1631C20.8711 19.083 20.5508 20.1582 20.332 21.3262C20.1562 22.2617 20.0469 23.248 20.0117 24.25L15.0273 24.25ZM25 15C25.832 15 26.5703 15.3643 27.1797 15.9209C27.7852 16.4756 28.2969 17.249 28.7109 18.1631C29.125 19.083 29.4492 20.1582 29.668 21.3262C29.8438 22.2617 29.9492 23.248 29.9883 24.25L34.9727 24.25C34.5898 19.0771 30.2695 15 25 15ZM15.0273 25.75L20.0117 25.75C20.0469 26.752 20.1562 27.7383 20.332 28.6738C20.5508 29.8418 20.8711 30.917 21.2891 31.8369C21.7031 32.751 22.2148 33.5244 22.8203 34.0791C23.4297 34.6357 24.168 35 25 35C19.7305 35 15.4102 30.9229 15.0273 25.75ZM25 35C30.2695 35 34.5898 30.9229 34.9727 25.75L29.9883 25.75C29.9492 26.752 29.8438 27.7383 29.668 28.6738C29.4492 29.8418 29.125 30.917 28.7109 31.8369C28.2969 32.751 27.7852 33.5244 27.1797 34.0791C26.5703 34.6357 25.832 35 25 35Z" fill="#0000DE" fill-opacity="1.000000" fill-rule="evenodd"/>
		<g opacity="0.500000">
			<path id="Vector" d="M23.957 16.8906C24.3711 16.5127 24.7266 16.3955 25 16.3955C25.2773 16.3955 25.6328 16.5127 26.043 16.8906C26.4609 17.2715 26.875 17.8682 27.2461 18.6816C27.6094 19.4893 27.9062 20.4648 28.1133 21.5547C28.2734 22.4121 28.3711 23.3223 28.4062 24.25L21.5938 24.25C21.6289 23.3223 21.7305 22.4121 21.8906 21.5547C22.0938 20.4648 22.3906 19.4893 22.7578 18.6816C23.125 17.8682 23.543 17.2715 23.957 16.8906ZM22.7578 31.3184C22.3906 30.5107 22.0938 29.5361 21.8906 28.4463C21.7305 27.5879 21.6289 26.6777 21.5938 25.75L28.4062 25.75C28.3711 26.6777 28.2734 27.5879 28.1133 28.4463C27.9062 29.5361 27.6094 30.5107 27.2461 31.3184C26.875 32.1318 26.4609 32.7285 26.043 33.1094C25.6328 33.4883 25.2773 33.6045 25 33.6045C24.7266 33.6045 24.3711 33.4883 23.957 33.1094C23.543 32.7285 23.125 32.1318 22.7578 31.3184Z" fill="#0000DE" fill-opacity="1.000000" fill-rule="evenodd"/>
		</g>
	</g>
</svg>
