<svg width="50.000000" height="50.000000" viewBox="0 0 50 50" fill="none" xmlns="http://www.w3.org/2000/svg" xmlns:xlink="http://www.w3.org/1999/xlink">
	<desc>
			Created with Pixso.
	</desc>
	<defs>
		<clipPath id="clip123_1903">
			<rect id="Bold Duotone / Notes / Document Text" rx="5.000000" width="24.000000" height="24.000000" transform="translate(13.000000 13.000000)" fill="white" fill-opacity="0"/>
		</clipPath>
	</defs>
	<rect id="Rectangle 943" rx="15.000000" width="50.000000" height="50.000000" fill="#FAFAFA" fill-opacity="1.000000"/>
	<g clip-path="url(#clip123_1903)">
		<g opacity="0.500000">
			<path id="Vector" d="M16 23C16 19.2285 16 17.3428 17.1719 16.1719C18.3438 15 20.2305 15 24 15L26 15C29.7695 15 31.6562 15 32.8281 16.1719C34 17.3428 34 19.2285 34 23L34 27C34 30.7715 34 32.6572 32.8281 33.8281C31.6562 35 29.7695 35 26 35L24 35C20.2305 35 18.3438 35 17.1719 33.8281C16 32.6572 16 30.7715 16 27L16 23Z" fill="#0000DE" fill-opacity="1.000000" fill-rule="nonzero"/>
		</g>
		<path id="Vector" d="M20.25 25C20.25 24.5859 20.5859 24.25 21 24.25L29 24.25C29.4141 24.25 29.75 24.5859 29.75 25C29.75 25.4141 29.4141 25.75 29 25.75L21 25.75C20.5859 25.75 20.25 25.4141 20.25 25Z" fill="#0000DE" fill-opacity="1.000000" fill-rule="evenodd"/>
		<path id="Vector" d="M20.25 21C20.25 20.5859 20.5859 20.25 21 20.25L29 20.25C29.4141 20.25 29.75 20.5859 29.75 21C29.75 21.4141 29.4141 21.75 29 21.75L21 21.75C20.5859 21.75 20.25 21.4141 20.25 21Z" fill="#0000DE" fill-opacity="1.000000" fill-rule="evenodd"/>
		<path id="Vector" d="M20.25 29C20.25 28.5859 20.5859 28.25 21 28.25L26 28.25C26.4141 28.25 26.75 28.5859 26.75 29C26.75 29.4141 26.4141 29.75 26 29.75L21 29.75C20.5859 29.75 20.25 29.4141 20.25 29Z" fill="#0000DE" fill-opacity="1.000000" fill-rule="evenodd"/>
	</g>
</svg>
