<svg width="50.000000" height="50.000000" viewBox="0 0 50 50" fill="none" xmlns="http://www.w3.org/2000/svg" xmlns:xlink="http://www.w3.org/1999/xlink">
	<desc>
			Created with Pixso.
	</desc>
	<defs>
		<clipPath id="clip123_1859">
			<rect id="Bold Duotone / Call / Phone Calling " width="24.000000" height="24.000000" transform="translate(13.000000 13.000000)" fill="white" fill-opacity="0"/>
		</clipPath>
	</defs>
	<rect id="Rectangle 943" rx="15.000000" width="50.000000" height="50.000000" fill="#FAFAFA" fill-opacity="1.000000"/>
	<g clip-path="url(#clip123_1859)">
		<g opacity="0.500000">
			<path id="Vector" d="M28.5547 27.5479L28.1016 28.0273C28.1016 28.0273 27.0195 29.167 24.0625 26.0557C21.1094 22.9453 22.1914 21.8047 22.1914 21.8047L22.4766 21.5029C23.1836 20.7588 23.25 19.5654 22.6328 18.6934L21.375 16.9092C20.6094 15.8301 19.1367 15.6875 18.2617 16.6084L16.6914 18.2607C16.2578 18.7178 15.9688 19.3096 16.0039 19.9658C16.0938 21.6455 16.8125 25.2588 20.8164 29.4756C25.0625 33.9463 29.0469 34.124 30.6758 33.9629C31.1914 33.9121 31.6406 33.6348 32 33.2539L33.4219 31.7588C34.3789 30.749 34.1094 29.0186 32.8828 28.3115L30.9727 27.2119C30.168 26.749 29.1875 26.8848 28.5547 27.5479Z" fill="#0000DE" fill-opacity="1.000000" fill-rule="nonzero"/>
		</g>
		<path id="Vector" d="M27.1211 14.2598C26.7109 14.1934 26.3242 14.4707 26.2578 14.8799C26.1953 15.2871 26.4805 15.6738 26.8867 15.7412C26.9414 15.7539 27.0859 15.7871 27.2031 15.8213C27.4375 15.8887 27.7812 16.0059 28.207 16.2012C29.0586 16.5908 30.2305 17.292 31.4688 18.5303C32.707 19.7676 33.4102 20.9424 33.7969 21.792C33.9922 22.2178 34.1094 22.5635 34.1797 22.7959C34.2109 22.9121 34.2344 23 34.2461 23.0547C34.2539 23.083 34.2578 23.1123 34.2617 23.123C34.3281 23.5303 34.7109 23.8057 35.1211 23.7402C35.5273 23.6738 35.8047 23.2715 35.7383 22.8623L35.7305 22.8311C35.7266 22.8057 35.7188 22.7715 35.7109 22.7295C35.6914 22.6436 35.6602 22.5244 35.6172 22.376C35.5312 22.0791 35.3906 21.665 35.1602 21.167C34.7031 20.1709 33.9062 18.8447 32.5312 17.4697C31.1562 16.0938 29.8281 15.2949 28.832 14.8379C28.3359 14.6094 27.9219 14.4668 27.625 14.3809C27.4766 14.3379 27.3555 14.3086 27.2695 14.2891C27.2266 14.2803 27.1445 14.2646 27.1211 14.2598ZM27.4141 17.8145C27.0156 17.7002 26.5977 17.9307 26.4844 18.3291C26.3711 18.7246 26.5977 19.1357 26.9922 19.2539L27 19.2568C27.0156 19.2627 27.0469 19.2734 27.0898 19.292C27.1758 19.3291 27.3164 19.3965 27.5039 19.5078C27.8828 19.7305 28.4531 20.1338 29.1523 20.833C29.8516 21.5332 30.2539 22.1025 30.4766 22.4795C30.5898 22.668 30.6562 22.8096 30.6914 22.8955C30.7109 22.9385 30.7227 22.9688 30.7266 22.9834L30.7305 22.9941C30.8477 23.3857 31.2617 23.6123 31.6562 23.499C32.0547 23.3857 32.2852 22.9697 32.1719 22.5723L31.4492 22.7773C32.1719 22.5723 32.1719 22.5703 32.1719 22.5703L32.168 22.5693L32.168 22.5654L32.168 22.5576L32.1602 22.5381C32.1562 22.5234 32.1484 22.5039 32.1406 22.4814C32.125 22.4365 32.1016 22.3779 32.0703 22.3047C32.0078 22.1592 31.9141 21.96 31.7695 21.7158C31.4766 21.2256 30.9961 20.5576 30.2109 19.7725C29.4258 18.9883 28.7578 18.5068 28.2695 18.2168C28.0234 18.0723 27.8242 17.9756 27.6797 17.9131C27.6055 17.8818 27.5469 17.8594 27.5039 17.8438C27.4805 17.8359 27.4609 17.8291 27.4453 17.8242L27.4258 17.8184L27.418 17.8164L27.4141 17.8154L27.4141 17.8145L27.4141 17.8145Z" fill="#0000DE" fill-opacity="1.000000" fill-rule="evenodd"/>
	</g>
</svg>
